<svg fill="none" height="26" viewBox="0 0 167 26" width="167" xmlns="http://www.w3.org/2000/svg"><g fill="#fff"><path clip-rule="evenodd" d="m12.7458.796631c-6.74866 0-12.214794 5.466139-12.214794 12.214869 0 5.405 3.496494 9.9703 8.351894 11.5888.61074.1069.83977-.2596.83977-.5802 0-.2901-.01527-1.252-.01527-2.275-3.06898.5649-3.86294-.7482-4.10724-1.4353-.13741-.3511-.73289-1.4352-1.25202-1.7253-.42752-.229-1.03826-.794-.01527-.8092.96192-.0153 1.64901.8855 1.87803 1.252 1.09934 1.8475 2.85522 1.3283 3.55758 1.0077.10688-.794.42752-1.3284.77872-1.6337-2.71783-.3054-5.55778-1.3589-5.55778-6.0311 0-1.3284.47333-2.42771 1.25202-3.28275-.12215-.30537-.54967-1.55739.12215-3.23693 0 0 1.02299-.32064 3.35908 1.25202.97723-.27483 2.01543-.41225 3.05373-.41225 1.0382 0 2.0765.13742 3.0537.41225 2.3361-1.58793 3.3591-1.25202 3.3591-1.25202.6718 1.67954.2443 2.93156.1221 3.23693.7787.85504 1.252 1.93915 1.252 3.28275 0 4.6874-2.8552 5.7257-5.573 6.0311.4428.3817.8245 1.1146.8245 2.2597 0 1.6337-.0152 2.9468-.0152 3.3591 0 .3206.229.7023.8397.5802 4.8249-1.6185 8.3214-6.199 8.3214-11.5888 0-6.74873-5.4662-12.214869-12.2149-12.214869z" fill-rule="evenodd"/><path d="m40.0563 21.3346c-1.3086 0-2.4848-.2025-3.5285-.6075-1.0282-.4206-1.9084-1.0126-2.6406-1.776-.7166-.7789-1.2696-1.7058-1.659-2.7807-.3739-1.0749-.5609-2.2666-.5609-3.5752 0-1.3709.2026-2.586.6076-3.64535.4206-1.0749 1.0048-1.98623 1.7526-2.73399.7477-.76334 1.6435-1.33974 2.6872-1.7292 1.0438-.40504 2.2044-.60756 3.4818-.60756 1.4799 0 2.7807.24926 3.9023.74776 1.1217.48293 2.0174 1.16838 2.6873 2.05635.6855.87238 1.0983 1.90055 1.2385 3.08451h-3.178c-.1402-.68545-.4284-1.26185-.8646-1.7292-.4206-.48293-.9581-.84902-1.6123-1.09827-.6388-.26483-1.3632-.39725-2.1732-.39725-1.0749 0-2.0174.23368-2.8275.70103-.8101.45177-1.4332 1.12943-1.8694 2.03297-.4362.9035-.6543 2.0096-.6543 3.3182 0 .9814.1169 1.8616.3505 2.6405.2493.7634.6076 1.4021 1.0749 1.9162.4674.514 1.0204.9113 1.6591 1.1917.6543.2648 1.3787.3972 2.1732.3972 1.0438 0 1.9473-.1869 2.7106-.5608.7634-.3894 1.3554-.9425 1.776-1.6591.4206-.7322.6309-1.5968.6309-2.5938v-.6075l.9113 1.0749h-5.9821v-2.2433h8.202v1.4254c0 1.184-.2025 2.2589-.6075 3.2247-.3895.9503-.9503 1.7604-1.6825 2.4303-.7166.6698-1.589 1.1917-2.6171 1.5656-1.0126.3583-2.1421.5374-3.3883.5374zm14.279 0c-.7478 0-1.4332-.1324-2.0564-.3972-.6075-.2804-1.1372-.6932-1.589-1.2385-.4361-.5452-.7711-1.2151-1.0048-2.0096-.2336-.8101-.3505-1.737-.3505-2.7807 0-1.4177.2026-2.6016.6076-3.5519.4206-.9658 1.0048-1.69024 1.7526-2.17317.7633-.48293 1.6435-.72439 2.6405-.72439.6854 0 1.293.10904 1.8226.32714.5453.20252 1.0126.49072 1.4021.8646.3895.37392.6854.81782.888 1.33192h.1635l.1169-2.28999h2.8041v12.43149h-2.921v-2.3134h-.1635c-.296.7634-.8023 1.3787-1.5189 1.8461-.7166.4518-1.5812.6776-2.5938.6776zm1.0983-2.3835c.701 0 1.2774-.1635 1.7291-.4907.4674-.3271.8179-.7477 1.0516-1.2618.2337-.5297.3505-1.0827.3505-1.6591v-1.2852c0-.592-.1168-1.145-.3505-1.6591-.2337-.5297-.5842-.9503-1.0516-1.2619-.4517-.3271-1.0281-.4907-1.7291-.4907-.6232 0-1.1684.148-1.6358.444-.4673.296-.8334.7478-1.0982 1.3553-.2649.592-.3973 1.3475-.3973 2.2667 0 .8879.1324 1.6357.3973 2.2433.2648.6075.6309 1.0593 1.0982 1.3553.4674.296 1.0126.4439 1.6358.4439zm7.8292 2.1732v-17.03489h2.9209v17.03489zm9.1312.2103c-.7478 0-1.4332-.1324-2.0564-.3972-.6075-.2804-1.1372-.6932-1.5889-1.2385-.4362-.5452-.7712-1.2151-1.0048-2.0096-.2337-.8101-.3506-1.737-.3506-2.7807 0-1.4177.2026-2.6016.6076-3.5519.4206-.9658 1.0048-1.69024 1.7526-2.17317.7633-.48293 1.6435-.72439 2.6405-.72439.6854 0 1.293.10904 1.8227.32714.5452.20252 1.0125.49072 1.402.8646.3895.37392.6854.81782.888 1.33192h.1635l.1169-2.28999h2.8041v12.43149h-2.921v-2.3134h-.1635c-.296.7634-.8023 1.3787-1.5189 1.8461-.7166.4518-1.5812.6776-2.5938.6776zm1.0983-2.3835c.701 0 1.2774-.1635 1.7292-.4907.4673-.3271.8178-.7477 1.0515-1.2618.2337-.5297.3505-1.0827.3505-1.6591v-1.2852c0-.592-.1168-1.145-.3505-1.6591-.2337-.5297-.5842-.9503-1.0515-1.2619-.4518-.3271-1.0282-.4907-1.7292-.4907-.6232 0-1.1684.148-1.6358.444-.4673.296-.8334.7478-1.0982 1.3553-.2649.592-.3973 1.3475-.3973 2.2667 0 .8879.1324 1.6357.3973 2.2433.2648.6075.6309 1.0593 1.0982 1.3553.4674.296 1.0126.4439 1.6358.4439zm7.1281 2.1732 4.7437-6.4027-4.2997-6.02879h3.4584l2.7808 4.01919h.1402l2.7573-4.01919h3.3182l-4.2061 5.95869 4.6501 6.4728h-3.435l-3.178-4.5333h-.1402l-3.3182 4.5333zm14.0306 3.9024v-2.4069h1.3787c.3739 0 .6854-.0467.9347-.1402.2492-.0934.4595-.2414.6309-.4439.1714-.2026.3116-.4596.4206-.7712l.6777-1.7525v1.3086l-5.0708-12.12779h3.2014l2.547 7.10369.4674 1.4021h.1168l.4206-1.4021 2.407-7.10369h3.108l-5.024 13.24939c-.281.7945-.631 1.4176-1.0518 1.8694-.405.4518-.8802.7633-1.4254.9347-.5297.1869-1.1372.2804-1.8227.2804z"/><path d="m115.243 21.1243v-.4206c0-.9347.155-1.7603.467-2.4769.312-.7322.724-1.3787 1.238-1.9395.515-.5764 1.075-1.0983 1.683-1.5657.623-.4673 1.238-.9113 1.846-1.3319.607-.4206 1.168-.8412 1.682-1.2619.514-.4362.927-.8957 1.239-1.3786.311-.4986.467-1.05937.467-1.68251 0-.59197-.132-1.10606-.397-1.54225-.249-.4362-.608-.77113-1.075-1.00481-.452-.24925-.981-.37388-1.589-.37388-.654 0-1.223.14021-1.706.42062-.483.26483-.857.6465-1.121 1.14501-.25.48292-.359 1.08269-.328 1.7993h-2.36c-.031-1.10607.187-2.06414.655-2.87421.467-.81007 1.129-1.441 1.986-1.89277.872-.45177 1.877-.67766 3.014-.67766 1.091 0 2.041.20252 2.851.60756.81.38946 1.441.95807 1.893 1.70583.452.73218.678 1.58899.678 2.57042 0 .73219-.133 1.39425-.398 1.98625s-.623 1.1372-1.075 1.6357c-.436.4829-.927.9347-1.472 1.3553-.529.4051-1.075.8023-1.636 1.1918-.545.3894-1.067.7867-1.565 1.1917-.499.3895-.919.8101-1.262 1.2619-.343.4362-.576.9113-.701 1.4254h8.295v2.1264zm18.231.187c-.935 0-1.784-.187-2.547-.5609-.748-.3894-1.395-.9502-1.94-1.6824-.529-.7478-.942-1.6591-1.238-2.734-.281-1.0749-.421-2.2978-.421-3.6687 0-1.3865.148-2.6172.444-3.69208.296-1.0749.717-1.97066 1.262-2.68726.545-.73218 1.192-1.27743 1.939-1.63573.748-.37388 1.589-.56082 2.524-.56082s1.768.19473 2.501.58419c.747.37388 1.386.92691 1.916 1.65909.529.73219.934 1.63573 1.215 2.71063.28 1.05938.42 2.27448.42 3.64538 0 1.402-.148 2.6405-.444 3.7154-.28 1.0593-.693 1.9629-1.238 2.7106-.53.7322-1.168 1.2852-1.916 1.6591-.748.3583-1.574.5375-2.477.5375zm-.024-2.0564c.577 0 1.091-.1246 1.543-.3739.451-.2492.833-.6387 1.145-1.1683.327-.5297.576-1.2073.747-2.033.172-.8412.258-1.8382.258-2.991 0-1.1684-.086-2.1654-.258-2.99109-.171-.82565-.42-1.50331-.747-2.03297-.312-.52966-.694-.91912-1.145-1.16837-.452-.24926-.966-.37388-1.543-.37388-.56 0-1.074.12462-1.542.37388-.452.24925-.841.63871-1.168 1.16837-.312.51409-.553 1.19174-.725 2.03297-.171.82569-.257 1.82269-.257 2.99109 0 1.1528.086 2.1498.257 2.991.172.8257.413 1.5033.725 2.033.327.5296.716.9191 1.168 1.1683.468.2493.982.3739 1.542.3739zm6.771 1.8694v-.4206c0-.9347.156-1.7603.468-2.4769.311-.7322.724-1.3787 1.238-1.9395.514-.5764 1.075-1.0983 1.682-1.5657.624-.4673 1.239-.9113 1.847-1.3319.607-.4206 1.168-.8412 1.682-1.2619.514-.4362.927-.8957 1.238-1.3786.312-.4986.468-1.05937.468-1.68251 0-.59197-.133-1.10606-.397-1.54225-.25-.4362-.608-.77113-1.075-1.00481-.452-.24925-.982-.37388-1.589-.37388-.655 0-1.223.14021-1.706.42062-.483.26483-.857.6465-1.122 1.14501-.249.48292-.358 1.08269-.327 1.7993h-2.36c-.031-1.10607.187-2.06414.654-2.87421.468-.81007 1.13-1.441 1.986-1.89277.873-.45177 1.878-.67766 3.015-.67766 1.09 0 2.041.20252 2.851.60756.81.38946 1.441.95807 1.892 1.70583.452.73218.678 1.58899.678 2.57042 0 .73219-.132 1.39425-.397 1.98625s-.623 1.1372-1.075 1.6357c-.436.4829-.927.9347-1.472 1.3553-.53.4051-1.075.8023-1.636 1.1918-.545.3894-1.067.7867-1.566 1.1917-.498.3895-.919.8101-1.261 1.2619-.343.4362-.577.9113-.701 1.4254h8.295v2.1264zm17.928.2103c-1.184 0-2.205-.2258-3.062-.6776-.856-.4518-1.518-1.0827-1.986-1.8928-.467-.8101-.701-1.7526-.701-2.8275h2.36c0 .6543.133 1.2307.398 1.7292.28.4985.677.888 1.191 1.1684s1.114.4206 1.8.4206c.701 0 1.3-.1246 1.799-.3739.514-.2492.911-.5997 1.192-1.0515.28-.4673.42-1.0048.42-1.6123 0-.4674-.078-.8802-.233-1.2385-.141-.3583-.351-.6543-.631-.888-.265-.2337-.584-.405-.958-.5141-.374-.1246-.795-.1869-1.262-.1869h-1.846v-1.8461h1.706c.654 0 1.199-.1168 1.635-.3505.436-.2492.764-.5764.982-.9814.233-.42061.35-.89575.35-1.42542 0-.56082-.132-1.03596-.397-1.42542-.249-.40503-.608-.70881-1.075-.91133-.452-.20252-.997-.30378-1.636-.30378-.685 0-1.277.14021-1.776.42062-.482.26483-.856.63871-1.121 1.12164-.249.48293-.382 1.05154-.397 1.70583h-2.361c0-1.07491.234-2.00961.701-2.8041.483-.81008 1.153-1.43321 2.01-1.86941.872-.43619 1.885-.65429 3.038-.65429.841 0 1.597.10905 2.266.32715.67.20252 1.247.49851 1.73.88796.483.38946.849.85681 1.098 1.40206.265.54524.397 1.15279.397 1.82266 0 .62314-.109 1.19175-.327 1.70583-.218.5141-.522.9503-.911 1.3086-.39.3583-.849.6231-1.379.7945v.1402c.623.1402 1.145.3972 1.566.7711.42.3739.74.8335.958 1.3787.233.5297.35 1.1372.35 1.8227 0 .9814-.249 1.8382-.748 2.5704-.482.7322-1.168 1.3086-2.056 1.7292-.872.405-1.9.6075-3.084.6075z"/></g></svg>